# xmcd
#
# Track frame offsets: 
#        150
#        11309
#        23397
#        40478
#        57237
#        74577
#        91818
#        107820
#        119270
#        133796
#        149111
#        159745
#        174186
#        193254
#        205461
#        220508
#        238875
#        257403
#
# Disc length: 3705 seconds
#
# Revision: 0
# Processed by: cddbd v1.5.2PL0 Copyright (c) Steve Scherf et al.
# Submitted via: ExactAudioCopy v1.0b3
#
DISCID=050e7712
DTITLE=Ulrike Hausmann - Session By Myself
DYEAR=1900
DGENRE=
TTITLE0=RIAS
TTITLE1=Cow Cow Boogie
TTITLE2=Long Lost Times
TTITLE3=Zum Gerücht
TTITLE4=Hamburg Boogie
TTITLE5=Deep Waves
TTITLE6=Carzy Boogie
TTITLE7=Walkin' Bass
TTITLE8=By Your Leave
TTITLE9=Monday Afternoon
TTITLE10=Speedn't Week
TTITLE11=Slang Boogie
TTITLE12=Deep Nights
TTITLE13=Chromatic Boogie
TTITLE14=Intro III
TTITLE15=Good Nights
TTITLE16=Ari's Bar At Altona
TTITLE17=Uli Blue Luv You
EXTD=
EXTT0=
EXTT1=
EXTT2=
EXTT3=
EXTT4=
EXTT5=
EXTT6=
EXTT7=
EXTT8=
EXTT9=
EXTT10=
EXTT11=
EXTT12=
EXTT13=
EXTT14=
EXTT15=
EXTT16=
EXTT17=
PLAYORDER=
